# xmcd
#
# Track frame offsets: 
#        150
#        21580
#        40007
#        65500
#
# Disc length: 1120 seconds
#
# Revision: 0
# Processed by: cddbd v1.5PL3 Copyright (c) Steve Scherf et al.
# Submitted via: ExactAudioCopy v0.90b4
#
DISCID=30045e04
DTITLE=Bluestraveler - Carolina Blues
DYEAR=1997
DGENRE=Blues
TTITLE0=Carolina Blues
TTITLE1=Psycho Joe
TTITLE2=Great Big World
TTITLE3=JustifyThe Thrill
EXTD=
EXTT0=
EXTT1=
EXTT2=
EXTT3=
PLAYORDER=
